M48
; DRILL file {KiCad (5.99.0-11145-g173c9a974c)} date Tue Jul 13 22:54:04 2021
; FORMAT={-:-/ absolute / metric / decimal}
; #@! TF.CreationDate,2021-07-13T22:54:04-07:00
; #@! TF.GenerationSoftware,Kicad,Pcbnew,(5.99.0-11145-g173c9a974c)
; #@! TF.FileFunction,Plated,1,2,PTH
FMAT,2
METRIC
; #@! TA.AperFunction,Plated,PTH,ViaDrill
T1C0.400
; #@! TA.AperFunction,Plated,PTH,ComponentDrill
T2C0.600
; #@! TA.AperFunction,Plated,PTH,ComponentDrill
T3C1.000
; #@! TA.AperFunction,Plated,PTH,ComponentDrill
T4C1.470
%
G90
G05
T1
X32.667Y-66.995
X41.8Y-57.9
X43.019Y-64.821
X43.024Y-25.476
X43.276Y-30.399
X43.971Y-70.097
X44.291Y-62.834
X44.354Y-34.487
X45.367Y-57.936
X45.465Y-66.189
X45.5Y-31.3
X45.62Y-44.719
X46.218Y-68.686
X47.187Y-60.495
X47.5Y-34.7
X47.6Y-26.3
X47.633Y-61.776
X47.7Y-49.7
X48.89Y-63.795
X48.9Y-31.2
X48.96Y-74.735
X49.6Y-71.621
X49.603Y-59.079
X49.648Y-60.541
X50.696Y-62.626
X51.05Y-31.2
X51.28Y-59.51
X51.398Y-63.69
X51.461Y-74.292
X52.226Y-64.416
X52.4Y-26.3
X52.409Y-60.709
X52.615Y-73.909
X53.0Y-55.9
X53.587Y-52.05
X53.95Y-30.7
X53.991Y-73.83
X54.512Y-66.176
X54.7Y-26.0
X55.9Y-29.1
X57.425Y-24.868
X59.0Y-65.5
X60.475Y-65.441
X65.537Y-63.158
X69.813Y-40.835
X79.4Y-61.3
X84.197Y-59.51
X89.19Y-71.211
X97.721Y-73.509
X105.371Y-60.636
X121.203Y-56.714
X133.255Y-75.544
X141.253Y-56.714
X149.188Y-54.486
X161.791Y-57.977
X210.489Y-83.18
X219.698Y-56.178
X236.318Y-56.178
T3
X154.653Y-26.335
X154.653Y-40.835
X157.153Y-40.835
X159.653Y-26.335
X159.653Y-40.835
X246.369Y-45.241
X248.909Y-45.241
T4
X29.525Y-87.942
X34.288Y-30.795
X34.288Y-49.844
X34.288Y-68.893
X35.875Y-85.402
X40.638Y-28.255
X40.638Y-47.304
X40.638Y-66.353
X48.574Y-87.942
X54.924Y-85.402
X58.099Y-30.795
X58.099Y-49.844
X58.099Y-68.893
X64.449Y-28.255
X64.449Y-47.304
X64.449Y-66.353
X67.623Y-87.942
X72.385Y-87.942
X73.973Y-85.402
X77.147Y-30.795
X77.147Y-49.844
X77.147Y-68.893
X78.735Y-85.402
X83.497Y-28.255
X83.497Y-47.304
X83.497Y-66.353
X90.164Y-87.942
X92.704Y-94.292
X96.196Y-30.795
X96.196Y-49.844
X96.196Y-68.893
X102.546Y-28.255
X102.546Y-47.304
X102.546Y-66.353
X115.245Y-30.795
X115.245Y-49.844
X115.245Y-68.893
X121.595Y-28.255
X121.595Y-47.304
X121.595Y-66.353
X124.769Y-87.942
X131.119Y-85.402
X134.294Y-30.795
X134.294Y-49.844
X134.294Y-68.893
X140.644Y-28.255
X140.644Y-47.304
X140.644Y-66.353
X153.343Y-30.795
X153.343Y-49.844
X153.343Y-68.893
X153.343Y-87.942
X159.693Y-28.255
X159.693Y-47.304
X159.693Y-66.353
X159.693Y-85.402
X172.391Y-30.795
X172.391Y-49.844
X172.391Y-68.893
X178.741Y-28.255
X178.741Y-47.304
X178.741Y-66.353
X181.916Y-87.942
X188.266Y-85.402
X191.44Y-30.795
X191.44Y-49.844
X191.44Y-68.893
X197.79Y-28.255
X197.79Y-47.304
X197.79Y-66.353
X210.489Y-30.795
X210.489Y-49.844
X210.489Y-68.893
X216.839Y-28.255
X216.839Y-47.304
X216.839Y-66.353
X221.601Y-86.672
X224.141Y-93.022
X229.538Y-30.795
X229.538Y-49.844
X229.538Y-68.893
X234.3Y-87.942
X235.888Y-28.255
X235.888Y-47.304
X235.888Y-66.353
X239.062Y-87.942
X240.65Y-85.402
X245.412Y-85.402
X248.587Y-30.795
X248.587Y-49.844
X248.587Y-68.893
X254.937Y-28.255
X254.937Y-47.304
X254.937Y-66.353
X258.111Y-87.942
X264.461Y-85.402
X272.398Y-30.795
X272.398Y-49.844
X272.398Y-68.893
X277.16Y-87.942
X278.748Y-28.255
X278.748Y-47.304
X278.748Y-66.353
X283.51Y-85.402
T2
G00X45.683Y-24.213
M15
G01X45.683Y-23.613
M16
G05
G00X45.683Y-28.643
M15
G01X45.683Y-27.543
M16
G05
G00X54.323Y-24.213
M15
G01X54.323Y-23.613
M16
G05
G00X54.323Y-28.643
M15
G01X54.323Y-27.543
M16
G05
T0
M30
