%TF.GenerationSoftware,KiCad,Pcbnew,(5.99.0-11145-g173c9a974c)*%
%TF.CreationDate,2021-07-13T22:54:01-07:00*%
%TF.ProjectId,40r7h0,34307237-6830-42e6-9b69-6361645f7063,rev?*%
%TF.SameCoordinates,Original*%
%TF.FileFunction,Soldermask,Top*%
%TF.FilePolarity,Negative*%
%FSLAX46Y46*%
G04 Gerber Fmt 4.6, Leading zero omitted, Abs format (unit mm)*
G04 Created by KiCad (PCBNEW (5.99.0-11145-g173c9a974c)) date 2021-07-13 22:54:01*
%MOMM*%
%LPD*%
G01*
G04 APERTURE LIST*
%ADD10C,1.750000*%
%ADD11C,3.987800*%
%ADD12C,3.048000*%
%ADD13R,2.000000X2.000000*%
%ADD14C,2.000000*%
%ADD15C,0.650000*%
%ADD16R,0.600000X1.450000*%
%ADD17R,0.300000X1.450000*%
%ADD18R,1.700000X1.700000*%
%ADD19O,1.700000X1.700000*%
G04 APERTURE END LIST*
D10*
%TO.C,MX26*%
X271127600Y-52384200D03*
X281287600Y-52384200D03*
D11*
X276207600Y-52384200D03*
%TD*%
%TO.C,MX45*%
X128579400Y-90481800D03*
D10*
X123499400Y-90481800D03*
X133659400Y-90481800D03*
D11*
X116673150Y-82226800D03*
D12*
X140485650Y-97466800D03*
D11*
X140485650Y-82226800D03*
D12*
X116673150Y-97466800D03*
%TD*%
D10*
%TO.C,MX44*%
X71115200Y-90481800D03*
X81275200Y-90481800D03*
D11*
X76195200Y-90481800D03*
%TD*%
D10*
%TO.C,MX16*%
X75877400Y-52384200D03*
D11*
X80957400Y-52384200D03*
D10*
X86037400Y-52384200D03*
%TD*%
%TO.C,MX48*%
X243190000Y-90481800D03*
D11*
X238110000Y-90481800D03*
D10*
X233030000Y-90481800D03*
%TD*%
D11*
%TO.C,MX50*%
X242872200Y-90481800D03*
D10*
X247952200Y-90481800D03*
X237792200Y-90481800D03*
%TD*%
D11*
%TO.C,MX35*%
X195250200Y-71433000D03*
D10*
X190170200Y-71433000D03*
X200330200Y-71433000D03*
%TD*%
%TO.C,MX20*%
X162232600Y-52384200D03*
X152072600Y-52384200D03*
D11*
X157152600Y-52384200D03*
%TD*%
D10*
%TO.C,MX7*%
X152072600Y-33335400D03*
D11*
X157152600Y-33335400D03*
D10*
X162232600Y-33335400D03*
%TD*%
%TO.C,MX8*%
X171121400Y-33335400D03*
D11*
X176201400Y-33335400D03*
D10*
X181281400Y-33335400D03*
%TD*%
D11*
%TO.C,MX2*%
X61908600Y-33335400D03*
D10*
X56828600Y-33335400D03*
X66988600Y-33335400D03*
%TD*%
%TO.C,MX15*%
X66988600Y-52384200D03*
D11*
X61908600Y-52384200D03*
D10*
X56828600Y-52384200D03*
%TD*%
D13*
%TO.C,SW2*%
X154652600Y-40835400D03*
D14*
X159652600Y-40835400D03*
X157152600Y-40835400D03*
X159652600Y-26335400D03*
X154652600Y-26335400D03*
%TD*%
D10*
%TO.C,MX19*%
X133023800Y-52384200D03*
X143183800Y-52384200D03*
D11*
X138103800Y-52384200D03*
%TD*%
D10*
%TO.C,MX24*%
X228267800Y-52384200D03*
X238427800Y-52384200D03*
D11*
X233347800Y-52384200D03*
%TD*%
D10*
%TO.C,MX14*%
X43177600Y-52384200D03*
X33017600Y-52384200D03*
D11*
X38097600Y-52384200D03*
%TD*%
D10*
%TO.C,MX12*%
X257476600Y-33335400D03*
X247316600Y-33335400D03*
D11*
X252396600Y-33335400D03*
%TD*%
D10*
%TO.C,MX29*%
X86037400Y-71433000D03*
X75877400Y-71433000D03*
D11*
X80957400Y-71433000D03*
%TD*%
%TO.C,MX28*%
X61908600Y-71433000D03*
D10*
X66988600Y-71433000D03*
X56828600Y-71433000D03*
%TD*%
%TO.C,MX13*%
X281287600Y-33335400D03*
D11*
X276207600Y-33335400D03*
D10*
X271127600Y-33335400D03*
%TD*%
%TO.C,MX22*%
X190170200Y-52384200D03*
X200330200Y-52384200D03*
D11*
X195250200Y-52384200D03*
%TD*%
D10*
%TO.C,MX38*%
X257476600Y-71433000D03*
D11*
X252396600Y-71433000D03*
D10*
X247316600Y-71433000D03*
%TD*%
D11*
%TO.C,MX5*%
X119055000Y-33335400D03*
D10*
X113975000Y-33335400D03*
X124135000Y-33335400D03*
%TD*%
%TO.C,MX9*%
X190170200Y-33335400D03*
X200330200Y-33335400D03*
D11*
X195250200Y-33335400D03*
%TD*%
%TO.C,MX18*%
X119055000Y-52384200D03*
D10*
X124135000Y-52384200D03*
X113975000Y-52384200D03*
%TD*%
%TO.C,MX34*%
X181281400Y-71433000D03*
D11*
X176201400Y-71433000D03*
D10*
X171121400Y-71433000D03*
%TD*%
%TO.C,MX10*%
X209219000Y-33335400D03*
D11*
X214299000Y-33335400D03*
D10*
X219379000Y-33335400D03*
%TD*%
%TO.C,MX27*%
X43177600Y-71433000D03*
D11*
X38097600Y-71433000D03*
D10*
X33017600Y-71433000D03*
%TD*%
D11*
%TO.C,MX52*%
X280969800Y-90481800D03*
D10*
X286049800Y-90481800D03*
X275889800Y-90481800D03*
%TD*%
%TO.C,MX39*%
X281287600Y-71433000D03*
X271127600Y-71433000D03*
D11*
X276207600Y-71433000D03*
%TD*%
%TO.C,MX32*%
X138103800Y-71433000D03*
D10*
X143183800Y-71433000D03*
X133023800Y-71433000D03*
%TD*%
%TO.C,MX42*%
X76513000Y-90481800D03*
D11*
X71433000Y-90481800D03*
D10*
X66353000Y-90481800D03*
%TD*%
D11*
%TO.C,MX30*%
X100006200Y-71433000D03*
D10*
X105086200Y-71433000D03*
X94926200Y-71433000D03*
%TD*%
%TO.C,MX3*%
X86037400Y-33335400D03*
D11*
X80957400Y-33335400D03*
D10*
X75877400Y-33335400D03*
%TD*%
D11*
%TO.C,MX21*%
X176201400Y-52384200D03*
D10*
X171121400Y-52384200D03*
X181281400Y-52384200D03*
%TD*%
%TO.C,MX11*%
X238427800Y-33335400D03*
D11*
X233347800Y-33335400D03*
D10*
X228267800Y-33335400D03*
%TD*%
D11*
%TO.C,MX1*%
X38097600Y-33335400D03*
D10*
X43177600Y-33335400D03*
X33017600Y-33335400D03*
%TD*%
%TO.C,MX17*%
X105086200Y-52384200D03*
D11*
X100006200Y-52384200D03*
D10*
X94926200Y-52384200D03*
%TD*%
%TO.C,MX37*%
X238427800Y-71433000D03*
D11*
X233347800Y-71433000D03*
D10*
X228267800Y-71433000D03*
%TD*%
D12*
%TO.C,MX46*%
X100002600Y-97466800D03*
X214302600Y-97466800D03*
D11*
X214302600Y-82226800D03*
D10*
X162232600Y-90481800D03*
D11*
X100002600Y-82226800D03*
D10*
X152072600Y-90481800D03*
D11*
X157152600Y-90481800D03*
%TD*%
%TO.C,MX49*%
X219061200Y-90481800D03*
D10*
X219061200Y-95561800D03*
X219061200Y-85401800D03*
%TD*%
D11*
%TO.C,MX43*%
X95244000Y-90481800D03*
D10*
X95244000Y-85401800D03*
X95244000Y-95561800D03*
%TD*%
%TO.C,MX47*%
X190805800Y-90481800D03*
D12*
X197632050Y-97466800D03*
D11*
X185725800Y-90481800D03*
X197632050Y-82226800D03*
X173819550Y-82226800D03*
D12*
X173819550Y-97466800D03*
D10*
X180645800Y-90481800D03*
%TD*%
%TO.C,MX25*%
X257476600Y-52384200D03*
D11*
X252396600Y-52384200D03*
D10*
X247316600Y-52384200D03*
%TD*%
%TO.C,MX41*%
X47304200Y-90481800D03*
D11*
X52384200Y-90481800D03*
D10*
X57464200Y-90481800D03*
%TD*%
%TO.C,MX31*%
X124135000Y-71433000D03*
X113975000Y-71433000D03*
D11*
X119055000Y-71433000D03*
%TD*%
D10*
%TO.C,MX6*%
X133023800Y-33335400D03*
D11*
X138103800Y-33335400D03*
D10*
X143183800Y-33335400D03*
%TD*%
%TO.C,MX23*%
X219379000Y-52384200D03*
X209219000Y-52384200D03*
D11*
X214299000Y-52384200D03*
%TD*%
D10*
%TO.C,MX51*%
X256841000Y-90481800D03*
X267001000Y-90481800D03*
D11*
X261921000Y-90481800D03*
%TD*%
%TO.C,MX36*%
X214299000Y-71433000D03*
D10*
X219379000Y-71433000D03*
X209219000Y-71433000D03*
%TD*%
D15*
%TO.C,USB1*%
X52893100Y-27563400D03*
X47113100Y-27563400D03*
D16*
X53228100Y-29008400D03*
X52453100Y-29008400D03*
D17*
X51753100Y-29008400D03*
X51253100Y-29008400D03*
X50753100Y-29008400D03*
X50253100Y-29008400D03*
X49753100Y-29008400D03*
X49253100Y-29008400D03*
X48753100Y-29008400D03*
X48253100Y-29008400D03*
D16*
X47553100Y-29008400D03*
X46778100Y-29008400D03*
%TD*%
D10*
%TO.C,MX4*%
X105086200Y-33335400D03*
D11*
X100006200Y-33335400D03*
D10*
X94926200Y-33335400D03*
%TD*%
%TO.C,MX40*%
X28255400Y-90481800D03*
X38415400Y-90481800D03*
D11*
X33335400Y-90481800D03*
%TD*%
%TO.C,MX33*%
X157152600Y-71433000D03*
D10*
X152072600Y-71433000D03*
X162232600Y-71433000D03*
%TD*%
D18*
%TO.C,SW1*%
X248909400Y-45240900D03*
D19*
X246369400Y-45240900D03*
%TD*%
M02*
