%TF.GenerationSoftware,KiCad,Pcbnew,(5.99.0-11145-g173c9a974c)*%
%TF.CreationDate,2021-07-13T22:54:01-07:00*%
%TF.ProjectId,40r7h0,34307237-6830-42e6-9b69-6361645f7063,rev?*%
%TF.SameCoordinates,Original*%
%TF.FileFunction,Soldermask,Bot*%
%TF.FilePolarity,Negative*%
%FSLAX46Y46*%
G04 Gerber Fmt 4.6, Leading zero omitted, Abs format (unit mm)*
G04 Created by KiCad (PCBNEW (5.99.0-11145-g173c9a974c)) date 2021-07-13 22:54:01*
%MOMM*%
%LPD*%
G01*
G04 APERTURE LIST*
G04 Aperture macros list*
%AMRoundRect*
0 Rectangle with rounded corners*
0 $1 Rounding radius*
0 $2 $3 $4 $5 $6 $7 $8 $9 X,Y pos of 4 corners*
0 Add a 4 corners polygon primitive as box body*
4,1,4,$2,$3,$4,$5,$6,$7,$8,$9,$2,$3,0*
0 Add four circle primitives for the rounded corners*
1,1,$1+$1,$2,$3*
1,1,$1+$1,$4,$5*
1,1,$1+$1,$6,$7*
1,1,$1+$1,$8,$9*
0 Add four rect primitives between the rounded corners*
20,1,$1+$1,$2,$3,$4,$5,0*
20,1,$1+$1,$4,$5,$6,$7,0*
20,1,$1+$1,$6,$7,$8,$9,0*
20,1,$1+$1,$8,$9,$2,$3,0*%
G04 Aperture macros list end*
%ADD10C,1.750000*%
%ADD11C,3.987800*%
%ADD12C,2.250000*%
%ADD13C,3.048000*%
%ADD14R,2.000000X2.000000*%
%ADD15C,2.000000*%
%ADD16C,0.650000*%
%ADD17O,1.000000X1.600000*%
%ADD18O,1.000000X2.100000*%
%ADD19R,1.200000X0.900000*%
%ADD20R,1.700000X1.700000*%
%ADD21O,1.700000X1.700000*%
%ADD22RoundRect,0.225000X0.225000X0.250000X-0.225000X0.250000X-0.225000X-0.250000X0.225000X-0.250000X0*%
%ADD23RoundRect,0.200000X0.275000X-0.200000X0.275000X0.200000X-0.275000X0.200000X-0.275000X-0.200000X0*%
%ADD24RoundRect,0.225000X0.250000X-0.225000X0.250000X0.225000X-0.250000X0.225000X-0.250000X-0.225000X0*%
%ADD25RoundRect,0.200000X-0.275000X0.200000X-0.275000X-0.200000X0.275000X-0.200000X0.275000X0.200000X0*%
%ADD26R,1.600000X0.550000*%
%ADD27R,0.550000X1.600000*%
%ADD28RoundRect,0.200000X-0.200000X-0.275000X0.200000X-0.275000X0.200000X0.275000X-0.200000X0.275000X0*%
%ADD29R,1.200000X1.400000*%
%ADD30R,1.400000X1.200000*%
%ADD31R,1.400000X1.000000*%
%ADD32RoundRect,0.250000X0.625000X-0.375000X0.625000X0.375000X-0.625000X0.375000X-0.625000X-0.375000X0*%
%ADD33RoundRect,0.225000X-0.225000X-0.250000X0.225000X-0.250000X0.225000X0.250000X-0.225000X0.250000X0*%
G04 APERTURE END LIST*
D10*
%TO.C,MX26*%
X271127600Y-52384200D03*
X281287600Y-52384200D03*
D11*
X276207600Y-52384200D03*
D12*
X272397600Y-49844200D03*
X278747600Y-47304200D03*
%TD*%
D11*
%TO.C,MX45*%
X128579400Y-90481800D03*
D10*
X123499400Y-90481800D03*
X133659400Y-90481800D03*
D11*
X116673150Y-82226800D03*
D13*
X140485650Y-97466800D03*
D11*
X140485650Y-82226800D03*
D13*
X116673150Y-97466800D03*
D12*
X124769400Y-87941800D03*
X131119400Y-85401800D03*
%TD*%
D10*
%TO.C,MX44*%
X71115200Y-90481800D03*
X81275200Y-90481800D03*
D11*
X76195200Y-90481800D03*
D12*
X72385200Y-87941800D03*
X78735200Y-85401800D03*
%TD*%
D10*
%TO.C,MX16*%
X75877400Y-52384200D03*
D11*
X80957400Y-52384200D03*
D10*
X86037400Y-52384200D03*
D12*
X77147400Y-49844200D03*
X83497400Y-47304200D03*
%TD*%
D10*
%TO.C,MX48*%
X243190000Y-90481800D03*
D11*
X238110000Y-90481800D03*
D10*
X233030000Y-90481800D03*
D12*
X234300000Y-87941800D03*
X240650000Y-85401800D03*
%TD*%
D11*
%TO.C,MX50*%
X242872200Y-90481800D03*
D10*
X247952200Y-90481800D03*
X237792200Y-90481800D03*
D12*
X239062200Y-87941800D03*
X245412200Y-85401800D03*
%TD*%
D11*
%TO.C,MX35*%
X195250200Y-71433000D03*
D10*
X190170200Y-71433000D03*
X200330200Y-71433000D03*
D12*
X191440200Y-68893000D03*
X197790200Y-66353000D03*
%TD*%
D10*
%TO.C,MX20*%
X162232600Y-52384200D03*
X152072600Y-52384200D03*
D11*
X157152600Y-52384200D03*
D12*
X153342600Y-49844200D03*
X159692600Y-47304200D03*
%TD*%
D10*
%TO.C,MX7*%
X152072600Y-33335400D03*
D11*
X157152600Y-33335400D03*
D10*
X162232600Y-33335400D03*
D12*
X153342600Y-30795400D03*
X159692600Y-28255400D03*
%TD*%
D10*
%TO.C,MX8*%
X171121400Y-33335400D03*
D11*
X176201400Y-33335400D03*
D10*
X181281400Y-33335400D03*
D12*
X172391400Y-30795400D03*
X178741400Y-28255400D03*
%TD*%
D11*
%TO.C,MX2*%
X61908600Y-33335400D03*
D10*
X56828600Y-33335400D03*
X66988600Y-33335400D03*
D12*
X58098600Y-30795400D03*
X64448600Y-28255400D03*
%TD*%
D10*
%TO.C,MX15*%
X66988600Y-52384200D03*
D11*
X61908600Y-52384200D03*
D10*
X56828600Y-52384200D03*
D12*
X58098600Y-49844200D03*
X64448600Y-47304200D03*
%TD*%
D14*
%TO.C,SW2*%
X154652600Y-40835400D03*
D15*
X159652600Y-40835400D03*
X157152600Y-40835400D03*
X159652600Y-26335400D03*
X154652600Y-26335400D03*
%TD*%
D10*
%TO.C,MX19*%
X133023800Y-52384200D03*
X143183800Y-52384200D03*
D11*
X138103800Y-52384200D03*
D12*
X134293800Y-49844200D03*
X140643800Y-47304200D03*
%TD*%
D10*
%TO.C,MX24*%
X228267800Y-52384200D03*
X238427800Y-52384200D03*
D11*
X233347800Y-52384200D03*
D12*
X229537800Y-49844200D03*
X235887800Y-47304200D03*
%TD*%
D10*
%TO.C,MX14*%
X43177600Y-52384200D03*
X33017600Y-52384200D03*
D11*
X38097600Y-52384200D03*
D12*
X34287600Y-49844200D03*
X40637600Y-47304200D03*
%TD*%
D10*
%TO.C,MX12*%
X257476600Y-33335400D03*
X247316600Y-33335400D03*
D11*
X252396600Y-33335400D03*
D12*
X248586600Y-30795400D03*
X254936600Y-28255400D03*
%TD*%
D10*
%TO.C,MX29*%
X86037400Y-71433000D03*
X75877400Y-71433000D03*
D11*
X80957400Y-71433000D03*
D12*
X77147400Y-68893000D03*
X83497400Y-66353000D03*
%TD*%
D11*
%TO.C,MX28*%
X61908600Y-71433000D03*
D10*
X66988600Y-71433000D03*
X56828600Y-71433000D03*
D12*
X58098600Y-68893000D03*
X64448600Y-66353000D03*
%TD*%
D10*
%TO.C,MX13*%
X281287600Y-33335400D03*
D11*
X276207600Y-33335400D03*
D10*
X271127600Y-33335400D03*
D12*
X272397600Y-30795400D03*
X278747600Y-28255400D03*
%TD*%
D10*
%TO.C,MX22*%
X190170200Y-52384200D03*
X200330200Y-52384200D03*
D11*
X195250200Y-52384200D03*
D12*
X191440200Y-49844200D03*
X197790200Y-47304200D03*
%TD*%
D10*
%TO.C,MX38*%
X257476600Y-71433000D03*
D11*
X252396600Y-71433000D03*
D10*
X247316600Y-71433000D03*
D12*
X248586600Y-68893000D03*
X254936600Y-66353000D03*
%TD*%
D11*
%TO.C,MX5*%
X119055000Y-33335400D03*
D10*
X113975000Y-33335400D03*
X124135000Y-33335400D03*
D12*
X115245000Y-30795400D03*
X121595000Y-28255400D03*
%TD*%
D10*
%TO.C,MX9*%
X190170200Y-33335400D03*
X200330200Y-33335400D03*
D11*
X195250200Y-33335400D03*
D12*
X191440200Y-30795400D03*
X197790200Y-28255400D03*
%TD*%
D11*
%TO.C,MX18*%
X119055000Y-52384200D03*
D10*
X124135000Y-52384200D03*
X113975000Y-52384200D03*
D12*
X115245000Y-49844200D03*
X121595000Y-47304200D03*
%TD*%
D10*
%TO.C,MX34*%
X181281400Y-71433000D03*
D11*
X176201400Y-71433000D03*
D10*
X171121400Y-71433000D03*
D12*
X172391400Y-68893000D03*
X178741400Y-66353000D03*
%TD*%
D10*
%TO.C,MX10*%
X209219000Y-33335400D03*
D11*
X214299000Y-33335400D03*
D10*
X219379000Y-33335400D03*
D12*
X210489000Y-30795400D03*
X216839000Y-28255400D03*
%TD*%
D10*
%TO.C,MX27*%
X43177600Y-71433000D03*
D11*
X38097600Y-71433000D03*
D10*
X33017600Y-71433000D03*
D12*
X34287600Y-68893000D03*
X40637600Y-66353000D03*
%TD*%
D11*
%TO.C,MX52*%
X280969800Y-90481800D03*
D10*
X286049800Y-90481800D03*
X275889800Y-90481800D03*
D12*
X277159800Y-87941800D03*
X283509800Y-85401800D03*
%TD*%
D10*
%TO.C,MX39*%
X281287600Y-71433000D03*
X271127600Y-71433000D03*
D11*
X276207600Y-71433000D03*
D12*
X272397600Y-68893000D03*
X278747600Y-66353000D03*
%TD*%
D11*
%TO.C,MX32*%
X138103800Y-71433000D03*
D10*
X143183800Y-71433000D03*
X133023800Y-71433000D03*
D12*
X134293800Y-68893000D03*
X140643800Y-66353000D03*
%TD*%
D10*
%TO.C,MX42*%
X76513000Y-90481800D03*
D11*
X71433000Y-90481800D03*
D10*
X66353000Y-90481800D03*
D12*
X67623000Y-87941800D03*
X73973000Y-85401800D03*
%TD*%
D11*
%TO.C,MX30*%
X100006200Y-71433000D03*
D10*
X105086200Y-71433000D03*
X94926200Y-71433000D03*
D12*
X96196200Y-68893000D03*
X102546200Y-66353000D03*
%TD*%
D10*
%TO.C,MX3*%
X86037400Y-33335400D03*
D11*
X80957400Y-33335400D03*
D10*
X75877400Y-33335400D03*
D12*
X77147400Y-30795400D03*
X83497400Y-28255400D03*
%TD*%
D11*
%TO.C,MX21*%
X176201400Y-52384200D03*
D10*
X171121400Y-52384200D03*
X181281400Y-52384200D03*
D12*
X172391400Y-49844200D03*
X178741400Y-47304200D03*
%TD*%
D10*
%TO.C,MX11*%
X238427800Y-33335400D03*
D11*
X233347800Y-33335400D03*
D10*
X228267800Y-33335400D03*
D12*
X229537800Y-30795400D03*
X235887800Y-28255400D03*
%TD*%
D11*
%TO.C,MX1*%
X38097600Y-33335400D03*
D10*
X43177600Y-33335400D03*
X33017600Y-33335400D03*
D12*
X34287600Y-30795400D03*
X40637600Y-28255400D03*
%TD*%
D10*
%TO.C,MX17*%
X105086200Y-52384200D03*
D11*
X100006200Y-52384200D03*
D10*
X94926200Y-52384200D03*
D12*
X96196200Y-49844200D03*
X102546200Y-47304200D03*
%TD*%
D10*
%TO.C,MX37*%
X238427800Y-71433000D03*
D11*
X233347800Y-71433000D03*
D10*
X228267800Y-71433000D03*
D12*
X229537800Y-68893000D03*
X235887800Y-66353000D03*
%TD*%
D13*
%TO.C,MX46*%
X100002600Y-97466800D03*
X214302600Y-97466800D03*
D11*
X214302600Y-82226800D03*
D10*
X162232600Y-90481800D03*
D11*
X100002600Y-82226800D03*
D10*
X152072600Y-90481800D03*
D11*
X157152600Y-90481800D03*
D12*
X153342600Y-87941800D03*
X159692600Y-85401800D03*
%TD*%
D11*
%TO.C,MX49*%
X219061200Y-90481800D03*
D10*
X219061200Y-95561800D03*
X219061200Y-85401800D03*
D12*
X221601200Y-86671800D03*
X224141200Y-93021800D03*
%TD*%
D11*
%TO.C,MX43*%
X95244000Y-90481800D03*
D10*
X95244000Y-85401800D03*
X95244000Y-95561800D03*
D12*
X90164000Y-87941800D03*
X92704000Y-94291800D03*
%TD*%
D10*
%TO.C,MX47*%
X190805800Y-90481800D03*
D13*
X197632050Y-97466800D03*
D11*
X185725800Y-90481800D03*
X197632050Y-82226800D03*
X173819550Y-82226800D03*
D13*
X173819550Y-97466800D03*
D10*
X180645800Y-90481800D03*
D12*
X181915800Y-87941800D03*
X188265800Y-85401800D03*
%TD*%
D10*
%TO.C,MX25*%
X257476600Y-52384200D03*
D11*
X252396600Y-52384200D03*
D10*
X247316600Y-52384200D03*
D12*
X248586600Y-49844200D03*
X254936600Y-47304200D03*
%TD*%
D10*
%TO.C,MX41*%
X47304200Y-90481800D03*
D11*
X52384200Y-90481800D03*
D10*
X57464200Y-90481800D03*
D12*
X48574200Y-87941800D03*
X54924200Y-85401800D03*
%TD*%
D10*
%TO.C,MX31*%
X124135000Y-71433000D03*
X113975000Y-71433000D03*
D11*
X119055000Y-71433000D03*
D12*
X115245000Y-68893000D03*
X121595000Y-66353000D03*
%TD*%
D10*
%TO.C,MX6*%
X133023800Y-33335400D03*
D11*
X138103800Y-33335400D03*
D10*
X143183800Y-33335400D03*
D12*
X134293800Y-30795400D03*
X140643800Y-28255400D03*
%TD*%
D10*
%TO.C,MX23*%
X219379000Y-52384200D03*
X209219000Y-52384200D03*
D11*
X214299000Y-52384200D03*
D12*
X210489000Y-49844200D03*
X216839000Y-47304200D03*
%TD*%
D10*
%TO.C,MX51*%
X256841000Y-90481800D03*
X267001000Y-90481800D03*
D11*
X261921000Y-90481800D03*
D12*
X258111000Y-87941800D03*
X264461000Y-85401800D03*
%TD*%
D11*
%TO.C,MX36*%
X214299000Y-71433000D03*
D10*
X219379000Y-71433000D03*
X209219000Y-71433000D03*
D12*
X210489000Y-68893000D03*
X216839000Y-66353000D03*
%TD*%
D16*
%TO.C,USB1*%
X52893100Y-27563400D03*
X47113100Y-27563400D03*
D17*
X54323100Y-23913400D03*
D18*
X45683100Y-28093400D03*
X54323100Y-28093400D03*
D17*
X45683100Y-23913400D03*
%TD*%
D10*
%TO.C,MX4*%
X105086200Y-33335400D03*
D11*
X100006200Y-33335400D03*
D10*
X94926200Y-33335400D03*
D12*
X96196200Y-30795400D03*
X102546200Y-28255400D03*
%TD*%
D10*
%TO.C,MX40*%
X28255400Y-90481800D03*
X38415400Y-90481800D03*
D11*
X33335400Y-90481800D03*
D12*
X29525400Y-87941800D03*
X35875400Y-85401800D03*
%TD*%
D11*
%TO.C,MX33*%
X157152600Y-71433000D03*
D10*
X152072600Y-71433000D03*
X162232600Y-71433000D03*
D12*
X153342600Y-68893000D03*
X159692600Y-66353000D03*
%TD*%
D19*
%TO.C,D33*%
X160327400Y-73876700D03*
X160327400Y-70576700D03*
%TD*%
%TO.C,D40*%
X36510200Y-92925500D03*
X36510200Y-89625500D03*
%TD*%
%TO.C,D13*%
X279382400Y-35779100D03*
X279382400Y-32479100D03*
%TD*%
%TO.C,D17*%
X103181000Y-54827900D03*
X103181000Y-51527900D03*
%TD*%
%TO.C,D32*%
X141278600Y-73876700D03*
X141278600Y-70576700D03*
%TD*%
%TO.C,D52*%
X284144600Y-92925500D03*
X284144600Y-89625500D03*
%TD*%
D20*
%TO.C,SW1*%
X248909400Y-45240900D03*
D21*
X246369400Y-45240900D03*
%TD*%
D22*
%TO.C,C4*%
X60375000Y-62500000D03*
X58825000Y-62500000D03*
%TD*%
D19*
%TO.C,D14*%
X41272400Y-54827900D03*
X41272400Y-51527900D03*
%TD*%
D23*
%TO.C,R3*%
X51100000Y-38128900D03*
X51100000Y-36478900D03*
%TD*%
D19*
%TO.C,D28*%
X65083400Y-73876700D03*
X65083400Y-70576700D03*
%TD*%
D24*
%TO.C,C3*%
X48200000Y-54675000D03*
X48200000Y-53125000D03*
%TD*%
D19*
%TO.C,D30*%
X103181000Y-73876700D03*
X103181000Y-70576700D03*
%TD*%
D25*
%TO.C,R6*%
X45450000Y-32510400D03*
X45450000Y-34160400D03*
%TD*%
D19*
%TO.C,D42*%
X79370000Y-92925500D03*
X79370000Y-89625500D03*
%TD*%
%TO.C,D9*%
X198425000Y-35779100D03*
X198425000Y-32479100D03*
%TD*%
%TO.C,D37*%
X236522600Y-73876700D03*
X236522600Y-70576700D03*
%TD*%
D26*
%TO.C,U1*%
X54253100Y-59108600D03*
X54253100Y-59908600D03*
X54253100Y-60708600D03*
X54253100Y-61508600D03*
X54253100Y-62308600D03*
X54253100Y-63108600D03*
X54253100Y-63908600D03*
X54253100Y-64708600D03*
D27*
X52803100Y-66158600D03*
X52003100Y-66158600D03*
X51203100Y-66158600D03*
X50403100Y-66158600D03*
X49603100Y-66158600D03*
X48803100Y-66158600D03*
X48003100Y-66158600D03*
X47203100Y-66158600D03*
D26*
X45753100Y-64708600D03*
X45753100Y-63908600D03*
X45753100Y-63108600D03*
X45753100Y-62308600D03*
X45753100Y-61508600D03*
X45753100Y-60708600D03*
X45753100Y-59908600D03*
X45753100Y-59108600D03*
D27*
X47203100Y-57658600D03*
X48003100Y-57658600D03*
X48803100Y-57658600D03*
X49603100Y-57658600D03*
X50403100Y-57658600D03*
X51203100Y-57658600D03*
X52003100Y-57658600D03*
X52803100Y-57658600D03*
%TD*%
D19*
%TO.C,D10*%
X217473800Y-35779100D03*
X217473800Y-32479100D03*
%TD*%
%TO.C,D2*%
X65083400Y-35779100D03*
X65083400Y-32479100D03*
%TD*%
%TO.C,D46*%
X160327400Y-92925500D03*
X160327400Y-89625500D03*
%TD*%
%TO.C,D4*%
X103181000Y-35779100D03*
X103181000Y-32479100D03*
%TD*%
D28*
%TO.C,R5*%
X55775000Y-25950000D03*
X57425000Y-25950000D03*
%TD*%
D19*
%TO.C,D15*%
X65083400Y-54827900D03*
X65083400Y-51527900D03*
%TD*%
%TO.C,D31*%
X122229800Y-73876700D03*
X122229800Y-70576700D03*
%TD*%
D23*
%TO.C,R2*%
X48900000Y-38125000D03*
X48900000Y-36475000D03*
%TD*%
D24*
%TO.C,C7*%
X52000000Y-54675000D03*
X52000000Y-53125000D03*
%TD*%
D19*
%TO.C,D26*%
X279382400Y-54827900D03*
X279382400Y-51527900D03*
%TD*%
%TO.C,D38*%
X255571400Y-73876700D03*
X255571400Y-70576700D03*
%TD*%
D29*
%TO.C,Y1*%
X60550000Y-58400000D03*
X60550000Y-60600000D03*
X58850000Y-60600000D03*
X58850000Y-58400000D03*
%TD*%
D24*
%TO.C,C1*%
X44100000Y-29575000D03*
X44100000Y-28025000D03*
%TD*%
D19*
%TO.C,D49*%
X227700000Y-92950000D03*
X227700000Y-96250000D03*
%TD*%
%TO.C,D36*%
X217473800Y-73876700D03*
X217473800Y-70576700D03*
%TD*%
%TO.C,D11*%
X236522600Y-35779100D03*
X236522600Y-32479100D03*
%TD*%
%TO.C,D25*%
X255571400Y-54827900D03*
X255571400Y-51527900D03*
%TD*%
%TO.C,D21*%
X179376200Y-54827900D03*
X179376200Y-51527900D03*
%TD*%
D22*
%TO.C,C2*%
X60525000Y-56450000D03*
X58975000Y-56450000D03*
%TD*%
D19*
%TO.C,D8*%
X179376200Y-35779100D03*
X179376200Y-32479100D03*
%TD*%
%TO.C,D18*%
X122229800Y-54827900D03*
X122229800Y-51527900D03*
%TD*%
%TO.C,D3*%
X84132200Y-35779100D03*
X84132200Y-32479100D03*
%TD*%
%TO.C,D12*%
X255571400Y-35779100D03*
X255571400Y-32479100D03*
%TD*%
%TO.C,D7*%
X160327400Y-35779100D03*
X160327400Y-32479100D03*
%TD*%
%TO.C,D20*%
X160327400Y-54827900D03*
X160327400Y-51527900D03*
%TD*%
%TO.C,D6*%
X141278600Y-35779100D03*
X141278600Y-32479100D03*
%TD*%
%TO.C,D51*%
X265095800Y-92925500D03*
X265095800Y-89625500D03*
%TD*%
%TO.C,D50*%
X246047000Y-92925500D03*
X246047000Y-89625500D03*
%TD*%
%TO.C,D34*%
X179376200Y-73876700D03*
X179376200Y-70576700D03*
%TD*%
%TO.C,D45*%
X131754200Y-92925500D03*
X131754200Y-89625500D03*
%TD*%
D28*
%TO.C,R1*%
X41825000Y-59100000D03*
X43475000Y-59100000D03*
%TD*%
D30*
%TO.C,U2*%
X48903100Y-34105400D03*
D31*
X48903100Y-32385400D03*
X51103100Y-32385400D03*
X51103100Y-34285400D03*
%TD*%
D19*
%TO.C,D16*%
X84132200Y-54827900D03*
X84132200Y-51527900D03*
%TD*%
%TO.C,D22*%
X198425000Y-54827900D03*
X198425000Y-51527900D03*
%TD*%
%TO.C,D41*%
X55559000Y-92925500D03*
X55559000Y-89625500D03*
%TD*%
%TO.C,D35*%
X198425000Y-73876700D03*
X198425000Y-70576700D03*
%TD*%
%TO.C,D47*%
X188900600Y-92925500D03*
X188900600Y-89625500D03*
%TD*%
%TO.C,D29*%
X84132200Y-73876700D03*
X84132200Y-70576700D03*
%TD*%
%TO.C,D19*%
X141278600Y-54827900D03*
X141278600Y-51527900D03*
%TD*%
D32*
%TO.C,F1*%
X53971600Y-34735400D03*
X53971600Y-31935400D03*
%TD*%
D19*
%TO.C,D23*%
X217473800Y-54827900D03*
X217473800Y-51527900D03*
%TD*%
%TO.C,D5*%
X122229800Y-35779100D03*
X122229800Y-32479100D03*
%TD*%
%TO.C,D39*%
X279382400Y-73876700D03*
X279382400Y-70576700D03*
%TD*%
D23*
%TO.C,R7*%
X44100000Y-26625000D03*
X44100000Y-24975000D03*
%TD*%
D19*
%TO.C,D27*%
X41272400Y-73876700D03*
X41272400Y-70576700D03*
%TD*%
%TO.C,D24*%
X236522600Y-54827900D03*
X236522600Y-51527900D03*
%TD*%
%TO.C,D43*%
X89000000Y-92850000D03*
X89000000Y-96150000D03*
%TD*%
D33*
%TO.C,C6*%
X58925000Y-64350000D03*
X60475000Y-64350000D03*
%TD*%
D19*
%TO.C,D1*%
X41272400Y-35779100D03*
X41272400Y-32479100D03*
%TD*%
D23*
%TO.C,R4*%
X49600000Y-70575000D03*
X49600000Y-68925000D03*
%TD*%
D24*
%TO.C,C5*%
X54050000Y-54675000D03*
X54050000Y-53125000D03*
%TD*%
M02*
