M48
; DRILL file {KiCad (5.99.0-11145-g173c9a974c)} date Tue Jul 13 22:54:04 2021
; FORMAT={-:-/ absolute / metric / decimal}
; #@! TF.CreationDate,2021-07-13T22:54:04-07:00
; #@! TF.GenerationSoftware,Kicad,Pcbnew,(5.99.0-11145-g173c9a974c)
; #@! TF.FileFunction,NonPlated,1,2,NPTH
FMAT,2
METRIC
; #@! TA.AperFunction,NonPlated,NPTH,ComponentDrill
T1C0.650
; #@! TA.AperFunction,NonPlated,NPTH,ComponentDrill
T2C1.750
; #@! TA.AperFunction,NonPlated,NPTH,ComponentDrill
T3C3.048
; #@! TA.AperFunction,NonPlated,NPTH,ComponentDrill
T4C3.988
%
G90
G05
T1
X47.113Y-27.563
X52.893Y-27.563
T2
X28.255Y-90.482
X33.018Y-33.335
X33.018Y-52.384
X33.018Y-71.433
X38.415Y-90.482
X43.178Y-33.335
X43.178Y-52.384
X43.178Y-71.433
X47.304Y-90.482
X56.829Y-33.335
X56.829Y-52.384
X56.829Y-71.433
X57.464Y-90.482
X66.353Y-90.482
X66.989Y-33.335
X66.989Y-52.384
X66.989Y-71.433
X71.115Y-90.482
X75.877Y-33.335
X75.877Y-52.384
X75.877Y-71.433
X76.513Y-90.482
X81.275Y-90.482
X86.037Y-33.335
X86.037Y-52.384
X86.037Y-71.433
X94.926Y-33.335
X94.926Y-52.384
X94.926Y-71.433
X95.244Y-85.402
X95.244Y-95.562
X105.086Y-33.335
X105.086Y-52.384
X105.086Y-71.433
X113.975Y-33.335
X113.975Y-52.384
X113.975Y-71.433
X123.499Y-90.482
X124.135Y-33.335
X124.135Y-52.384
X124.135Y-71.433
X133.024Y-33.335
X133.024Y-52.384
X133.024Y-71.433
X133.659Y-90.482
X143.184Y-33.335
X143.184Y-52.384
X143.184Y-71.433
X152.073Y-33.335
X152.073Y-52.384
X152.073Y-71.433
X152.073Y-90.482
X162.233Y-33.335
X162.233Y-52.384
X162.233Y-71.433
X162.233Y-90.482
X171.121Y-33.335
X171.121Y-52.384
X171.121Y-71.433
X180.646Y-90.482
X181.281Y-33.335
X181.281Y-52.384
X181.281Y-71.433
X190.17Y-33.335
X190.17Y-52.384
X190.17Y-71.433
X190.806Y-90.482
X200.33Y-33.335
X200.33Y-52.384
X200.33Y-71.433
X209.219Y-33.335
X209.219Y-52.384
X209.219Y-71.433
X219.061Y-85.402
X219.061Y-95.562
X219.379Y-33.335
X219.379Y-52.384
X219.379Y-71.433
X228.268Y-33.335
X228.268Y-52.384
X228.268Y-71.433
X233.03Y-90.482
X237.792Y-90.482
X238.428Y-33.335
X238.428Y-52.384
X238.428Y-71.433
X243.19Y-90.482
X247.317Y-33.335
X247.317Y-52.384
X247.317Y-71.433
X247.952Y-90.482
X256.841Y-90.482
X257.477Y-33.335
X257.477Y-52.384
X257.477Y-71.433
X267.001Y-90.482
X271.128Y-33.335
X271.128Y-52.384
X271.128Y-71.433
X275.89Y-90.482
X281.288Y-33.335
X281.288Y-52.384
X281.288Y-71.433
X286.05Y-90.482
T3
X100.003Y-97.467
X116.673Y-97.467
X140.486Y-97.467
X173.82Y-97.467
X197.632Y-97.467
X214.303Y-97.467
T4
X33.335Y-90.482
X38.098Y-33.335
X38.098Y-52.384
X38.098Y-71.433
X52.384Y-90.482
X61.909Y-33.335
X61.909Y-52.384
X61.909Y-71.433
X71.433Y-90.482
X76.195Y-90.482
X80.957Y-33.335
X80.957Y-52.384
X80.957Y-71.433
X95.244Y-90.482
X100.003Y-82.227
X100.006Y-33.335
X100.006Y-52.384
X100.006Y-71.433
X116.673Y-82.227
X119.055Y-33.335
X119.055Y-52.384
X119.055Y-71.433
X128.579Y-90.482
X138.104Y-33.335
X138.104Y-52.384
X138.104Y-71.433
X140.486Y-82.227
X157.153Y-33.335
X157.153Y-52.384
X157.153Y-71.433
X157.153Y-90.482
X173.82Y-82.227
X176.201Y-33.335
X176.201Y-52.384
X176.201Y-71.433
X185.726Y-90.482
X195.25Y-33.335
X195.25Y-52.384
X195.25Y-71.433
X197.632Y-82.227
X214.299Y-33.335
X214.299Y-52.384
X214.299Y-71.433
X214.303Y-82.227
X219.061Y-90.482
X233.348Y-33.335
X233.348Y-52.384
X233.348Y-71.433
X238.11Y-90.482
X242.872Y-90.482
X252.397Y-33.335
X252.397Y-52.384
X252.397Y-71.433
X261.921Y-90.482
X276.208Y-33.335
X276.208Y-52.384
X276.208Y-71.433
X280.97Y-90.482
T0
M30
